HIERARCHY
ROOT Hips
{
	OFFSET 0.00000 0.00000 0.00000
	CHANNELS 6 Xposition Yposition Zposition Zrotation Yrotation Xrotation 
	JOINT LHipJoint
	{
		OFFSET 0 0 0
		CHANNELS 3 Zrotation Yrotation Xrotation
		JOINT LeftUpLeg
		{
			OFFSET 2.36090 -1.39315 1.24752
			CHANNELS 3 Zrotation Yrotation Xrotation
			JOINT LeftLeg
			{
				OFFSET 2.06810 -5.68207 0.00000
				CHANNELS 3 Zrotation Yrotation Xrotation
				JOINT LeftFoot
				{
					OFFSET 2.46631 -6.77613 0.00000
					CHANNELS 3 Zrotation Yrotation Xrotation
					JOINT LeftToeBase
					{
						OFFSET 0.26031 -0.71520 1.99545
						CHANNELS 3 Zrotation Yrotation Xrotation
						End Site
						{
							OFFSET 0.00000 -0.00000 1.05957
						}
					}
				}
			}
		}
	}
	JOINT RHipJoint
	{
		OFFSET 0 0 0
		CHANNELS 3 Zrotation Yrotation Xrotation
		JOINT RightUpLeg
		{
			OFFSET -2.25243 -1.39315 1.24752
			CHANNELS 3 Zrotation Yrotation Xrotation
			JOINT RightLeg
			{
				OFFSET -2.17343 -5.97145 0.00000
				CHANNELS 3 Zrotation Yrotation Xrotation
				JOINT RightFoot
				{
					OFFSET -2.52372 -6.93386 0.00000
					CHANNELS 3 Zrotation Yrotation Xrotation
					JOINT RightToeBase
					{
						OFFSET -0.22538 -0.61923 2.11447
						CHANNELS 3 Zrotation Yrotation Xrotation
						End Site
						{
							OFFSET -0.00000 -0.00000 1.10506
						}
					}
				}
			}
		}
	}
	JOINT LowerBack
	{
		OFFSET 0 0 0
		CHANNELS 3 Zrotation Yrotation Xrotation
		JOINT Spine
		{
			OFFSET 0.01594 2.13103 0.08007
			CHANNELS 3 Zrotation Yrotation Xrotation
			JOINT Spine1
			{
				OFFSET 0.01393 2.09723 0.18338
				CHANNELS 3 Zrotation Yrotation Xrotation
				JOINT Neck
				{
					OFFSET 0 0 0
					CHANNELS 3 Zrotation Yrotation Xrotation
					JOINT Neck1
					{
						OFFSET 0.05351 1.38915 0.32494
						CHANNELS 3 Zrotation Yrotation Xrotation
						JOINT Head
						{
							OFFSET 0.00711 1.45992 -0.21666
							CHANNELS 3 Zrotation Yrotation Xrotation
							End Site
							{
								OFFSET -0.00433 1.47702 -0.11056
							}
						}
					}
				}
				JOINT LeftShoulder
				{
					OFFSET 0 0 0
					CHANNELS 3 Zrotation Yrotation Xrotation
					JOINT LeftArm
					{
						OFFSET 2.87198 0.92249 0.11132
						CHANNELS 3 Zrotation Yrotation Xrotation
						JOINT LeftForeArm
						{
							OFFSET 5.52731 -0.00000 0.00000
							CHANNELS 3 Zrotation Yrotation Xrotation
							JOINT LeftHand
							{
								OFFSET 3.11059 -0.00000 0.00000
								CHANNELS 3 Zrotation Yrotation Xrotation
								JOINT LeftFingerBase
								{
									OFFSET 0 0 0
									CHANNELS 3 Zrotation Yrotation Xrotation
									JOINT LeftHandIndex1
									{
										OFFSET 0.41963 -0.00000 0.00000
										CHANNELS 3 Zrotation Yrotation Xrotation
										End Site
										{
											OFFSET 0.33831 -0.00000 0.00000
										}
									}
								}
								JOINT LThumb
								{
									OFFSET 0 0 0
									CHANNELS 3 Zrotation Yrotation Xrotation
									End Site
									{
										OFFSET 0.34348 -0.00000 0.34348
									}
								}
							}
						}
					}
				}
				JOINT RightShoulder
				{
					OFFSET 0 0 0
					CHANNELS 3 Zrotation Yrotation Xrotation
					JOINT RightArm
					{
						OFFSET -2.94710 0.68072 0.32187
						CHANNELS 3 Zrotation Yrotation Xrotation
						JOINT RightForeArm
						{
							OFFSET -5.25396 -0.00000 -0.00000
							CHANNELS 3 Zrotation Yrotation Xrotation
							JOINT RightHand
							{
								OFFSET -3.10567 -0.00000 0.00000
								CHANNELS 3 Zrotation Yrotation Xrotation
								JOINT RightFingerBase
								{
									OFFSET 0 0 0
									CHANNELS 3 Zrotation Yrotation Xrotation
									JOINT RightHandIndex1
									{
										OFFSET -0.49868 -0.00000 0.00000
										CHANNELS 3 Zrotation Yrotation Xrotation
										End Site
										{
											OFFSET -0.40204 -0.00000 0.00000
										}
									}
								}
								JOINT RThumb
								{
									OFFSET 0 0 0
									CHANNELS 3 Zrotation Yrotation Xrotation
									End Site
									{
										OFFSET -0.40818 -0.00000 0.40818
									}
								}
							}
						}
					}
				}
			}
		}
	}
}
MOTION
Frames: 5
Frame Time: .0083333
6.0243 15.7013 26.5424 -513.5300 -85.1013 528.5570 0.0000 0.0000 0.0000 -10.7528 -16.7571 -6.4413 0.0000 -0.0000 -0.0000 -0.8015 15.6254 -6.3779 0.6199 -5.0385 -14.0185 0.0000 0.0000 0.0000 15.0631 28.0392 -13.1832 -1.8101 -8.4588 24.1164 0.4672 -18.1706 -21.2230 -0.3120 3.5907 -9.9279 1.4553 1.3604 -22.1710 0.3173 1.1152 -3.9468 -0.1856 0.4418 8.0796 10.3669 8.7625 -16.2980 -6.8917 11.0748 22.4508 -2.5564 5.0942 10.9250 0.0000 -0.0000 0.0000 -78.5932 5.8534 56.2462 17.9368 -28.0761 -4.5194 -0.0000 0.0000 -42.5869 32.5389 2.1982 1.4019 -7.1250 0.0000 -0.0000 4.8159 32.5612 -1.4715 0.0000 -0.0000 0.0000 82.5906 -4.3843 48.6727 -14.7219 23.7572 -3.1130 0.0000 -0.0000 -6.5185 -18.3510 -18.5311 6.0180 7.1250 -0.0000 -0.0000 9.6141 -49.1893 -1.0016
6.0192 15.7006 26.5502 -514.4800 -85.0468 529.4660 0.0000 0.0000 0.0000 -10.8763 -16.6832 -6.3728 0.0000 -0.0000 -0.0000 -0.8003 15.6149 -6.4068 0.6185 -5.0331 -14.0031 0.0000 0.0000 0.0000 14.9950 28.1190 -13.1231 -1.8166 -8.4731 24.1604 0.4682 -18.2001 -21.2649 -0.3134 3.5990 -9.9512 1.3845 1.3379 -22.2019 0.3270 1.1011 -3.9279 -0.1380 0.4335 8.1149 10.5523 8.8919 -16.2672 -7.1216 11.2749 22.5193 -2.6363 5.1726 10.9923 -0.0000 -0.0000 0.0000 -78.5931 5.8266 56.2982 17.9297 -28.0670 -4.5161 -0.0000 0.0000 -42.5571 32.5262 2.1909 1.3965 -7.1250 0.0000 -0.0000 4.8053 32.5520 -1.4693 -0.0000 -0.0000 0.0000 82.5572 -4.3656 48.7095 -14.7219 23.7573 -3.1131 0.0000 -0.0000 -6.6389 -18.3612 -18.5709 6.0340 7.1250 -0.0000 -0.0000 9.6166 -49.2314 -1.0119
6.0140 15.6998 26.5579 -515.3750 -84.9904 530.3150 0.0000 0.0000 0.0000 -10.9977 -16.6082 -6.3007 0.0000 -0.0000 -0.0000 -0.7990 15.6042 -6.4363 0.6177 -5.0300 -13.9943 0.0000 0.0000 0.0000 14.9315 28.1804 -13.0642 -1.8226 -8.4863 24.2013 0.4673 -18.2153 -21.3018 -0.3145 3.6052 -9.9685 1.3207 1.3183 -22.2330 0.3337 1.0899 -3.9041 -0.0966 0.4270 8.1560 10.7207 9.0219 -16.2416 -7.3334 11.4758 22.5840 -2.7065 5.2519 11.0579 -0.0000 0.0000 0.0000 -78.5819 5.7935 56.3623 17.9256 -28.0618 -4.5142 -0.0000 0.0000 -42.5395 32.4965 2.1777 1.3865 -7.1250 0.0000 -0.0000 4.7807 32.5365 -1.4635 -0.0000 0.0000 0.0000 82.5325 -4.3372 48.7288 -14.7175 23.7510 -3.1112 0.0000 -0.0000 -6.7592 -18.3719 -18.6140 6.0511 7.1250 -0.0000 -0.0000 9.6198 -49.2772 -1.0232
6.0089 15.6989 26.5659 -516.2080 -84.9355 531.0990 0.0000 0.0000 0.0000 -11.1181 -16.5360 -6.2247 0.0000 -0.0000 -0.0000 -0.7979 15.5945 -6.4665 0.6163 -5.0244 -13.9783 0.0000 0.0000 0.0000 14.8715 28.2063 -13.0117 -1.8280 -8.4982 24.2378 0.4634 -18.2050 -21.3267 -0.3174 3.6213 -10.0136 1.2661 1.3021 -22.2631 0.3383 1.0815 -3.8756 -0.0621 0.4222 8.2020 10.8651 9.1506 -16.2201 -7.5280 11.6767 22.6433 -2.7664 5.3310 11.1205 0.0000 -0.0000 0.0000 -78.5667 5.7552 56.4363 17.9247 -28.0607 -4.5138 -0.0000 0.0000 -42.5326 32.4516 2.1630 1.3748 -7.1250 0.0000 -0.0000 4.7437 32.5178 -1.4543 0.0000 -0.0000 0.0000 82.5109 -4.3011 48.7333 -14.7102 23.7408 -3.1083 0.0000 -0.0000 -6.8813 -18.3761 -18.6553 6.0655 7.1250 -0.0000 -0.0000 9.6287 -49.3200 -1.0344
6.0039 15.6981 26.5743 -516.9750 -84.8843 531.8200 0.0000 0.0000 0.0000 -11.2351 -16.4707 -6.1538 0.0000 0.0000 0.0000 -0.7968 15.5857 -6.4953 0.6143 -5.0161 -13.9546 0.0000 0.0000 0.0000 14.8101 28.1979 -12.9742 -1.8325 -8.5080 24.2682 0.4580 -18.1746 -21.3338 -0.3224 3.6499 -10.0936 1.2203 1.2870 -22.2966 0.3434 1.0725 -3.8455 -0.0321 0.4173 8.2517 10.9786 9.2787 -16.1995 -7.7023 11.8800 22.6970 -2.8135 5.4109 11.1786 0.0000 0.0000 0.0000 -78.5584 5.7130 56.5074 17.9240 -28.0597 -4.5134 -0.0000 0.0000 -42.5308 32.4158 2.1523 1.3661 -7.1250 0.0000 -0.0000 4.7143 32.5042 -1.4468 0.0000 0.0000 0.0000 82.4874 -4.2583 48.7266 -14.7002 23.7268 -3.1043 0.0000 -0.0000 -7.0007 -18.3731 -18.6952 6.0768 7.1250 -0.0000 -0.0000 9.6441 -49.3603 -1.0457
